<svg width="261" height="45" viewBox="0 0 261 45" fill="none" xmlns="http://www.w3.org/2000/svg">
<path d="M5.292 10.068C5.348 10.124 5.376 10.2173 5.376 10.348C5.376 10.516 5.31067 10.7027 5.18 10.908C5.068 11.1133 4.91867 11.272 4.732 11.384C4.76933 11.4213 4.788 11.5333 4.788 11.72C4.788 11.9067 4.76933 12.084 4.732 12.252C4.71333 12.4013 4.69467 12.504 4.676 12.56C4.732 12.616 4.788 12.7373 4.844 12.924C4.9 13.1107 4.93733 13.26 4.956 13.372C5.124 13.372 5.28267 13.428 5.432 13.54C5.58133 13.652 5.69333 13.8107 5.768 14.016C5.78667 13.9973 5.83333 13.988 5.908 13.988C6.02 13.988 6.15067 14.0067 6.3 14.044C6.44933 14.0813 6.57067 14.1187 6.664 14.156C6.72 14.1 6.84133 14.072 7.028 14.072C7.34533 14.072 7.55067 14.1467 7.644 14.296C7.73733 14.24 7.85867 14.212 8.008 14.212C8.30667 14.212 8.53067 14.2867 8.68 14.436C8.77333 14.3613 8.96933 14.324 9.268 14.324C9.47333 14.324 9.67867 14.352 9.884 14.408C10.0893 14.464 10.22 14.5387 10.276 14.632C10.332 14.6133 10.416 14.604 10.528 14.604C10.8453 14.604 11.144 14.688 11.424 14.856C11.7227 15.0053 11.872 15.1733 11.872 15.36C12.1147 15.3227 12.3387 15.3787 12.544 15.528C12.7493 15.6773 12.9173 15.864 13.048 16.088C13.384 16.144 13.7013 16.452 14 17.012C14.2987 17.572 14.448 18.0947 14.448 18.58C14.448 18.804 14.4013 18.9907 14.308 19.14C14.588 19.3267 14.728 19.672 14.728 20.176C14.728 20.5307 14.6533 20.8573 14.504 21.156C14.5413 21.3053 14.56 21.4173 14.56 21.492C14.56 21.8093 14.4667 22.1267 14.28 22.444C14.112 22.7427 13.9067 22.9293 13.664 23.004C13.608 23.3213 13.44 23.62 13.16 23.9C12.88 24.1613 12.5907 24.3573 12.292 24.488C12.2547 24.7307 12.0773 24.9733 11.76 25.216C11.4427 25.44 11.1347 25.5147 10.836 25.44C10.7053 25.608 10.4627 25.748 10.108 25.86C9.772 25.9533 9.408 26 9.016 26C8.64267 26 8.29733 25.9533 7.98 25.86C7.68133 25.7667 7.476 25.6267 7.364 25.44C7.196 25.5147 7.00933 25.552 6.804 25.552C6.54267 25.552 6.29067 25.4867 6.048 25.356C5.824 25.2253 5.66533 25.048 5.572 24.824C5.348 24.88 5.10533 24.8333 4.844 24.684C4.60133 24.516 4.424 24.264 4.312 23.928C4.01333 23.928 3.70533 23.8253 3.388 23.62C3.08933 23.4147 2.92133 23.2093 2.884 23.004C2.58533 22.948 2.352 22.8173 2.184 22.612C2.03467 22.4067 1.96 22.1733 1.96 21.912C1.96 21.6133 2.05333 21.3427 2.24 21.1C2.44533 20.8573 2.70667 20.736 3.024 20.736C3.192 20.736 3.32267 20.7547 3.416 20.792C3.56533 20.7547 3.668 20.736 3.724 20.736C4.004 20.736 4.256 20.8293 4.48 21.016C4.72267 21.2027 4.85333 21.436 4.872 21.716C4.984 21.6787 5.07733 21.66 5.152 21.66C5.41333 21.66 5.64667 21.7813 5.852 22.024C6.076 22.248 6.20667 22.5093 6.244 22.808C6.356 22.752 6.47733 22.724 6.608 22.724C6.81333 22.724 7.00933 22.78 7.196 22.892C7.38267 23.004 7.48533 23.1347 7.504 23.284C7.672 23.228 7.84 23.2 8.008 23.2C8.30667 23.2 8.54933 23.3213 8.736 23.564C8.904 23.452 9.08133 23.396 9.268 23.396C9.36133 23.396 9.52 23.4333 9.744 23.508C9.98667 23.1533 10.2293 23.0133 10.472 23.088C10.6213 22.8827 10.7893 22.7053 10.976 22.556C11.1627 22.388 11.3493 22.2947 11.536 22.276C11.6107 22.0707 11.6947 21.9213 11.788 21.828C11.8813 21.716 12.0307 21.604 12.236 21.492C12.1987 21.4173 12.18 21.324 12.18 21.212C12.18 21.0253 12.2173 20.8293 12.292 20.624C12.3667 20.4187 12.4507 20.288 12.544 20.232C12.3947 20.064 12.32 19.868 12.32 19.644C12.32 19.4573 12.3853 19.2427 12.516 19C12.18 18.7947 12.012 18.496 12.012 18.104C11.732 18.0107 11.5267 17.88 11.396 17.712C11.0787 17.7307 10.8173 17.684 10.612 17.572C10.4067 17.4413 10.276 17.2547 10.22 17.012C10.0707 17.0493 9.968 17.068 9.912 17.068C9.72533 17.068 9.548 17.0307 9.38 16.956C9.212 16.8627 9.072 16.7413 8.96 16.592C8.848 16.6853 8.69867 16.732 8.512 16.732C8.26933 16.732 8.008 16.6387 7.728 16.452C7.54133 16.5453 7.364 16.592 7.196 16.592C6.95333 16.592 6.75733 16.5453 6.608 16.452C6.496 16.4893 6.40267 16.508 6.328 16.508C6.16 16.508 6.00133 16.48 5.852 16.424C5.72133 16.3493 5.64667 16.2653 5.628 16.172C4.956 16.172 4.592 16.0507 4.536 15.808C4.312 15.7707 4.09733 15.696 3.892 15.584C3.68667 15.4533 3.57467 15.304 3.556 15.136C3.36933 15.0987 3.21067 14.996 3.08 14.828C2.94933 14.6413 2.884 14.4173 2.884 14.156C2.716 14.0253 2.576 13.792 2.464 13.456C2.352 13.12 2.296 12.7653 2.296 12.392C2.296 11.7947 2.41733 11.384 2.66 11.16C2.62267 11.048 2.604 10.936 2.604 10.824C2.604 10.5627 2.65067 10.292 2.744 10.012C2.856 9.732 2.968 9.564 3.08 9.508C3.08 9.26533 3.14533 8.98533 3.276 8.668C3.444 8.444 3.64 8.25733 3.864 8.108C4.088 7.94 4.33067 7.856 4.592 7.856C4.62933 7.65067 4.74133 7.47333 4.928 7.324C5.13333 7.17467 5.36667 7.1 5.628 7.1C5.70267 6.876 5.86133 6.69867 6.104 6.568C6.34667 6.43733 6.61733 6.372 6.916 6.372C7.14 6.372 7.336 6.4 7.504 6.456C7.56 6.36267 7.66267 6.288 7.812 6.232C7.96133 6.176 8.12 6.148 8.288 6.148C8.38133 6.148 8.484 6.16667 8.596 6.204C8.764 6.036 9.06267 5.952 9.492 5.952C9.95867 5.952 10.3133 6.036 10.556 6.204C10.6307 6.18533 10.7333 6.176 10.864 6.176C11.424 6.176 11.9 6.50267 12.292 7.156C12.4973 7.11867 12.7213 7.17467 12.964 7.324C13.2253 7.47333 13.4307 7.67867 13.58 7.94C13.748 8.18267 13.8227 8.416 13.804 8.64C14.1213 8.864 14.3453 9.09733 14.476 9.34C14.6067 9.58267 14.7093 9.94667 14.784 10.432C14.8027 10.768 14.7 11.0387 14.476 11.244C14.252 11.4493 13.9907 11.552 13.692 11.552C13.412 11.552 13.1693 11.4493 12.964 11.244C12.74 11.2067 12.544 11.0947 12.376 10.908C12.208 10.7213 12.1333 10.5347 12.152 10.348C11.6293 9.99333 11.396 9.60133 11.452 9.172C11.228 9.20933 10.948 9.15333 10.612 9.004C10.2947 8.836 10.052 8.62133 9.884 8.36C9.75333 8.54667 9.492 8.64 9.1 8.64C8.82 8.64 8.58667 8.59333 8.4 8.5C8.26933 8.668 8.036 8.752 7.7 8.752C7.532 8.752 7.37333 8.724 7.224 8.668C7.14933 8.87333 7.01867 9.05067 6.832 9.2C6.664 9.33067 6.468 9.41467 6.244 9.452C6.132 9.62 5.992 9.76933 5.824 9.9C5.656 10.012 5.47867 10.068 5.292 10.068ZM29.0642 15.052C29.2696 15.1453 29.4562 15.3693 29.6242 15.724C29.8109 16.0787 29.9042 16.4427 29.9042 16.816C29.9042 17.4507 29.6242 17.88 29.0642 18.104C28.9149 18.3653 28.7096 18.5707 28.4482 18.72C28.2056 18.8693 27.9349 18.944 27.6362 18.944C27.3936 18.944 27.1416 18.888 26.8802 18.776C26.7309 18.8693 26.5256 18.9533 26.2642 19.028C26.0029 19.1027 25.7416 19.14 25.4802 19.14C25.0322 19.14 24.7242 19.0467 24.5562 18.86C24.3696 19.0093 24.0709 19.084 23.6602 19.084C23.3616 19.084 23.0909 19.028 22.8482 18.916C22.5869 19.0467 22.2882 19.112 21.9522 19.112C21.6349 19.112 21.3736 19.0653 21.1682 18.972C20.9816 19.14 20.5989 19.224 20.0202 19.224C19.7029 19.224 19.4882 19.196 19.3762 19.14C19.4322 19.6813 19.3576 20.0827 19.1522 20.344C19.5069 20.6987 19.6469 21.0813 19.5722 21.492C19.5909 21.5107 19.6936 21.5853 19.8802 21.716C20.0669 21.8467 20.1976 22.0613 20.2722 22.36C20.4776 22.36 20.6642 22.444 20.8322 22.612C21.0189 22.78 21.1309 22.948 21.1682 23.116C21.2429 23.0413 21.3922 23.004 21.6162 23.004C21.7842 23.004 21.9336 23.032 22.0642 23.088C22.1949 23.144 22.2696 23.2093 22.2882 23.284C22.4189 23.2093 22.5682 23.172 22.7362 23.172C22.9789 23.172 23.2029 23.256 23.4082 23.424C23.5949 23.3867 23.7349 23.368 23.8282 23.368C24.0149 23.368 24.1736 23.396 24.3042 23.452C24.3602 23.3027 24.5096 23.1627 24.7522 23.032C24.9949 22.8827 25.2469 22.8173 25.5082 22.836C25.6576 22.6493 25.8629 22.5 26.1242 22.388C26.3856 22.276 26.6469 22.22 26.9082 22.22C27.4122 22.22 27.7762 22.4253 28.0002 22.836C28.0749 22.9853 28.1122 23.1627 28.1122 23.368C28.1122 23.816 27.9069 24.1707 27.4962 24.432C27.4029 24.488 27.2442 24.5907 27.0202 24.74C26.7962 24.8707 26.5909 24.9733 26.4042 25.048C26.2176 25.1227 26.0496 25.16 25.9002 25.16C25.6202 25.496 25.2376 25.664 24.7522 25.664C24.5282 25.664 24.3602 25.6453 24.2482 25.608C24.0242 25.7947 23.6976 25.888 23.2682 25.888C22.8762 25.888 22.6056 25.8133 22.4562 25.664C22.3256 25.72 22.1949 25.748 22.0642 25.748C21.8029 25.748 21.5602 25.6547 21.3362 25.468C20.3842 25.524 19.7402 25.2253 19.4042 24.572C19.1429 24.572 18.8442 24.4133 18.5082 24.096C18.1909 23.76 18.0136 23.4707 17.9762 23.228C17.5469 23.06 17.2762 22.752 17.1642 22.304C17.1456 22.1547 17.1456 22.0147 17.1642 21.884C17.0896 21.8653 17.0242 21.7907 16.9682 21.66C16.9309 21.5107 16.9122 21.3613 16.9122 21.212C16.9122 21.1 16.9216 21.0253 16.9402 20.988C16.7909 20.54 16.7162 20.1293 16.7162 19.756C16.7162 19.3827 16.7909 19.0467 16.9402 18.748C16.8282 18.5427 16.7722 18.3187 16.7722 18.076C16.7722 17.7773 16.8376 17.4787 16.9682 17.18C17.0989 16.8813 17.2202 16.6853 17.3322 16.592C17.2949 16.4987 17.3229 16.34 17.4162 16.116C17.5096 15.8733 17.6309 15.6587 17.7802 15.472C17.9482 15.2667 18.1162 15.1453 18.2842 15.108L18.2562 14.8C18.2562 14.072 18.6482 13.6147 19.4322 13.428C19.4322 13.1107 19.6189 12.8027 19.9922 12.504C20.3656 12.2053 20.6922 12.0747 20.9722 12.112C21.0096 11.9067 21.1869 11.748 21.5042 11.636C21.8402 11.5053 22.0922 11.468 22.2602 11.524C22.4096 11.2813 22.7082 11.1133 23.1562 11.02C23.3242 10.8333 23.5669 10.74 23.8842 10.74C23.9776 10.74 24.0989 10.7587 24.2482 10.796L24.5002 10.768C24.7242 10.768 24.9109 10.8147 25.0602 10.908C25.2282 10.9827 25.3029 11.076 25.2842 11.188C25.6949 11.2253 26.0402 11.3187 26.3202 11.468C26.6002 11.6173 26.7682 11.888 26.8242 12.28C27.0669 12.224 27.3749 12.2893 27.7482 12.476C28.1216 12.644 28.4389 12.9147 28.7002 13.288C28.9802 13.6427 29.1202 14.0627 29.1202 14.548C29.1202 14.66 29.1016 14.828 29.0642 15.052ZM24.9482 16.872C25.1349 16.6107 25.5922 16.48 26.3202 16.48C26.7309 16.48 27.0482 16.5173 27.2722 16.592C27.1229 16.5173 26.9829 16.3587 26.8522 16.116C26.7402 15.8547 26.6842 15.612 26.6842 15.388C26.6842 15.2387 26.7122 15.1267 26.7682 15.052C26.5069 15.0707 26.2829 15.0053 26.0962 14.856C25.9282 14.688 25.7696 14.5013 25.6202 14.296C25.4896 14.0907 25.3869 13.9413 25.3122 13.848C25.2189 13.904 25.0229 13.8573 24.7242 13.708C24.4442 13.54 24.2949 13.372 24.2762 13.204C24.2016 13.2973 24.0429 13.3813 23.8002 13.456C23.5576 13.512 23.3709 13.5307 23.2402 13.512C23.1842 13.6053 23.0536 13.6987 22.8482 13.792C22.6429 13.8853 22.4282 13.9133 22.2042 13.876C22.0176 14.2307 21.8216 14.52 21.6162 14.744C21.4109 14.968 21.1496 15.136 20.8322 15.248C20.7949 15.5093 20.6736 15.7987 20.4682 16.116C20.2816 16.4333 20.0856 16.676 19.8802 16.844L19.9922 16.872C20.2536 16.6853 20.6082 16.592 21.0562 16.592C21.3176 16.592 21.5602 16.62 21.7842 16.676C22.0269 16.732 22.1949 16.7973 22.2882 16.872C22.7362 16.592 23.2309 16.452 23.7722 16.452C24.2202 16.452 24.6122 16.592 24.9482 16.872ZM33.9128 24.684C33.9875 25.0947 33.9035 25.4213 33.6608 25.664C33.4368 25.888 33.1568 26 32.8208 26C32.5221 26 32.2608 25.9067 32.0368 25.72C31.8128 25.5147 31.7008 25.2347 31.7008 24.88C31.7008 24.656 31.7568 24.404 31.8688 24.124C31.7568 23.8627 31.7008 23.592 31.7008 23.312C31.7008 23.088 31.7475 22.9013 31.8408 22.752C31.7288 22.6773 31.6448 22.5653 31.5888 22.416C31.5328 22.2667 31.5048 22.0987 31.5048 21.912C31.5048 21.7253 31.5421 21.52 31.6168 21.296C31.4488 21.0907 31.3648 20.848 31.3648 20.568C31.3648 20.2133 31.4955 19.924 31.7568 19.7C31.7381 19.644 31.7288 19.5507 31.7288 19.42C31.7288 19.2333 31.7475 19.1027 31.7848 19.028C31.5795 18.7667 31.4768 18.3933 31.4768 17.908C31.4768 17.572 31.5421 17.3107 31.6728 17.124C31.5421 17.012 31.4301 16.8627 31.3368 16.676C31.2435 16.4707 31.1968 16.2653 31.1968 16.06C31.1968 15.836 31.2621 15.6213 31.3928 15.416C31.2995 15.192 31.2528 14.996 31.2528 14.828C31.2528 14.548 31.3368 14.2867 31.5048 14.044C31.2808 13.82 31.1688 13.5867 31.1688 13.344C31.1688 13.1573 31.2341 12.9053 31.3648 12.588C31.2341 12.3267 31.1688 12.0467 31.1688 11.748C31.1688 11.356 31.3088 11.1133 31.5888 11.02C31.6075 10.7587 31.7008 10.544 31.8688 10.376C32.0368 10.208 32.2421 10.124 32.4848 10.124C32.7648 10.124 33.0075 10.264 33.2128 10.544C33.4368 10.8053 33.5488 11.188 33.5488 11.692C33.5488 11.8973 33.5395 12.0653 33.5208 12.196C33.5955 12.1587 33.6701 12.1027 33.7448 12.028C33.8195 11.9347 33.9128 11.8693 34.0248 11.832C34.1368 11.7947 34.3048 11.776 34.5288 11.776C34.5661 11.6827 34.6875 11.5893 34.8928 11.496C35.1168 11.4027 35.3315 11.356 35.5368 11.356C35.6861 11.356 35.7888 11.3747 35.8448 11.412C35.9941 11.3373 36.1435 11.3 36.2928 11.3C36.5168 11.3 36.7595 11.4587 37.0208 11.776C37.4688 11.7387 37.7955 11.8413 38.0008 12.084C38.2995 12.0653 38.5608 12.1027 38.7848 12.196C39.0088 12.2893 39.1861 12.4853 39.3168 12.784C39.6715 13.008 39.8488 13.3067 39.8488 13.68C39.8488 13.9973 39.7088 14.296 39.4288 14.576C39.1675 14.8373 38.8781 14.968 38.5608 14.968C38.2061 14.968 37.9075 14.7813 37.6648 14.408C37.4595 14.408 37.3008 14.3893 37.1888 14.352C37.0768 14.3147 36.9648 14.2307 36.8528 14.1C36.7408 14.1373 36.6475 14.156 36.5728 14.156C36.4048 14.156 36.2275 14.1093 36.0408 14.016C35.7795 14.184 35.4995 14.2587 35.2008 14.24C35.0888 14.5013 34.7995 14.632 34.3328 14.632C34.3515 14.688 34.3608 14.7813 34.3608 14.912C34.3608 15.1547 34.3048 15.3973 34.1928 15.64C34.0995 15.864 33.9781 16.032 33.8288 16.144C33.9781 16.4987 34.0528 16.8533 34.0528 17.208C34.0528 17.5253 33.9781 17.768 33.8288 17.936C33.8848 18.0107 33.9408 18.104 33.9968 18.216C34.0715 18.328 34.1275 18.4307 34.1648 18.524C34.2021 18.6733 34.2208 18.7853 34.2208 18.86C34.2208 18.9907 34.1741 19.168 34.0808 19.392C34.1741 19.616 34.2208 19.784 34.2208 19.896C34.2208 20.0453 34.1555 20.2507 34.0248 20.512C34.1368 20.6987 34.1928 20.904 34.1928 21.128C34.1928 21.3893 34.1275 21.6133 33.9968 21.8C34.1275 22.0987 34.1928 22.4067 34.1928 22.724C34.1928 22.9667 34.1368 23.1907 34.0248 23.396C34.1181 23.5827 34.1648 23.7693 34.1648 23.956C34.1648 24.2173 34.0808 24.46 33.9128 24.684ZM49.0726 22.472C49.11 22.6587 49.1286 22.8173 49.1286 22.948C49.1286 23.3213 49.0446 23.6853 48.8766 24.04C48.7273 24.3947 48.5593 24.6187 48.3726 24.712C48.2606 25.1413 48.0926 25.468 47.8686 25.692C47.6446 25.8973 47.3926 26 47.1126 26C46.7393 26 46.4126 25.832 46.1326 25.496C45.7593 25.3653 45.5726 25.1133 45.5726 24.74C45.5726 24.572 45.6006 24.4227 45.6566 24.292C45.526 24.292 45.3673 24.18 45.1806 23.956C45.0126 23.732 44.9286 23.4987 44.9286 23.256C44.9286 23.144 44.9566 23.032 45.0126 22.92C44.9566 22.8267 44.8633 22.7053 44.7326 22.556C44.602 22.388 44.5273 22.2107 44.5086 22.024C44.3033 21.9493 44.1446 21.828 44.0326 21.66C43.9206 21.4733 43.8646 21.268 43.8646 21.044C43.8646 20.876 43.8833 20.7453 43.9206 20.652C43.734 20.4653 43.5753 20.1947 43.4446 19.84C43.314 19.4667 43.258 19.1493 43.2766 18.888C43.1273 18.776 43.006 18.636 42.9126 18.468C42.838 18.3 42.8006 18.132 42.8006 17.964C42.8006 17.852 42.81 17.768 42.8286 17.712C42.5486 17.6373 42.2966 17.4507 42.0726 17.152C41.8486 16.8347 41.746 16.4613 41.7646 16.032C41.5593 15.9013 41.4193 15.7987 41.3446 15.724C41.2886 15.6307 41.2606 15.5187 41.2606 15.388L41.2886 14.94C41.0086 14.716 40.7846 14.4827 40.6166 14.24C40.4486 13.9787 40.374 13.6427 40.3926 13.232C40.1686 12.84 40.0566 12.5133 40.0566 12.252C40.0566 11.9347 40.206 11.636 40.5046 11.356C40.7473 11.132 41.0086 11.02 41.2886 11.02C41.6246 11.02 41.9046 11.16 42.1286 11.44C42.3713 11.7013 42.474 11.972 42.4366 12.252C42.642 12.252 42.8006 12.3547 42.9126 12.56C43.0246 12.7653 43.0806 12.9893 43.0806 13.232C43.0806 13.344 43.0713 13.428 43.0526 13.484C43.37 13.8013 43.5286 14.1373 43.5286 14.492C43.5286 14.6227 43.5006 14.744 43.4446 14.856C43.7993 14.912 44.0513 15.0893 44.2006 15.388C44.35 15.6867 44.3966 16.004 44.3406 16.34C44.8633 16.5827 45.0873 16.9747 45.0126 17.516C45.2553 17.7027 45.4046 17.908 45.4606 18.132C45.5166 18.356 45.554 18.6547 45.5726 19.028C45.778 19.1773 45.9646 19.3827 46.1326 19.644C46.3006 19.9053 46.3566 20.1947 46.3006 20.512C46.5806 20.792 46.702 21.1 46.6646 21.436C46.7206 21.4733 46.786 21.548 46.8606 21.66C46.8793 21.3613 46.9353 21.128 47.0286 20.96C47.122 20.792 47.2433 20.6147 47.3926 20.428C47.3553 20.316 47.374 20.176 47.4486 20.008C47.5233 19.84 47.6353 19.6907 47.7846 19.56C47.71 19.4293 47.6726 19.28 47.6726 19.112C47.6726 18.7947 47.7846 18.5707 48.0086 18.44C47.9526 18.328 47.9246 18.1693 47.9246 17.964C47.9246 17.7587 47.962 17.544 48.0366 17.32C48.1113 17.096 48.2233 16.9 48.3726 16.732C48.354 16.6573 48.3446 16.5453 48.3446 16.396C48.3446 15.948 48.4846 15.584 48.7646 15.304C48.7086 15.192 48.6806 15.0333 48.6806 14.828C48.6806 14.436 48.8113 14.1187 49.0726 13.876C48.998 13.6707 48.9606 13.456 48.9606 13.232C48.9606 12.9147 49.0166 12.6067 49.1286 12.308C49.2406 12.0093 49.362 11.7947 49.4926 11.664C49.5673 11.4213 49.698 11.2347 49.8846 11.104C50.0713 10.9733 50.2673 10.908 50.4726 10.908C50.7713 10.908 51.042 11.02 51.2846 11.244C51.546 11.4493 51.6766 11.7107 51.6766 12.028C51.6766 12.2147 51.63 12.392 51.5366 12.56C51.6113 12.6907 51.6486 12.8493 51.6486 13.036C51.6486 13.2973 51.5926 13.5587 51.4806 13.82C51.3686 14.0627 51.2193 14.2493 51.0326 14.38C51.0513 14.5107 51.0606 14.6973 51.0606 14.94C51.0606 15.3693 50.958 15.7333 50.7526 16.032C50.79 16.1813 50.8086 16.3493 50.8086 16.536C50.8086 16.8347 50.762 17.124 50.6686 17.404C50.5753 17.684 50.4166 17.8987 50.1926 18.048C50.2486 18.216 50.2766 18.412 50.2766 18.636C50.2766 19.1587 50.146 19.5413 49.8846 19.784C49.9033 19.84 49.9126 19.924 49.9126 20.036C49.9126 20.26 49.8753 20.484 49.8006 20.708C49.726 20.9133 49.6233 21.0907 49.4926 21.24C49.53 21.4267 49.5486 21.5573 49.5486 21.632C49.5486 21.8 49.5113 21.94 49.4366 22.052C49.3806 22.1453 49.306 22.2387 49.2126 22.332C49.138 22.4067 49.0913 22.4533 49.0726 22.472ZM54.4821 6.036C54.2394 6.148 54.0434 6.30667 53.8941 6.512C53.7448 6.71733 53.6701 6.932 53.6701 7.156C53.6701 7.45467 53.7914 7.75333 54.0341 8.052C53.9968 8.29467 54.1274 8.528 54.4261 8.752C54.7248 8.976 55.0514 9.088 55.4061 9.088C55.6488 9.088 55.8634 9.02267 56.0501 8.892C56.5728 8.612 56.8341 8.25733 56.8341 7.828C56.8341 7.548 56.7221 7.23067 56.4981 6.876C56.5168 6.50267 56.4048 6.21333 56.1621 6.008C55.9381 5.784 55.6674 5.672 55.3501 5.672C54.9954 5.672 54.7061 5.79333 54.4821 6.036ZM56.3021 18.412C56.4514 18.468 56.5634 18.6453 56.6381 18.944C56.7314 19.2427 56.7781 19.5693 56.7781 19.924C56.7781 20.3347 56.7128 20.6053 56.5821 20.736C56.6941 21.016 56.7501 21.2867 56.7501 21.548C56.7501 21.884 56.6661 22.164 56.4981 22.388C56.6288 22.7053 56.6941 23.0787 56.6941 23.508C56.6941 23.8627 56.6381 24.152 56.5261 24.376C56.5821 24.544 56.6101 24.7027 56.6101 24.852C56.6101 25.188 56.4888 25.4587 56.2461 25.664C56.0034 25.8507 55.7141 25.944 55.3781 25.944C55.0608 25.944 54.7901 25.8507 54.5661 25.664C54.3421 25.4587 54.2394 25.188 54.2581 24.852C54.1648 24.74 54.0901 24.5627 54.0341 24.32C53.9781 24.0773 53.9501 23.8253 53.9501 23.564C53.9501 23.0787 54.0528 22.7613 54.2581 22.612C54.1088 22.3693 54.0341 22.0053 54.0341 21.52C54.0341 21.0347 54.0994 20.68 54.2301 20.456C54.1554 20.3813 54.0994 20.204 54.0621 19.924C54.0248 19.644 54.0061 19.336 54.0061 19C54.0061 18.6827 54.0248 18.4027 54.0621 18.16C54.0994 17.8987 54.1554 17.7307 54.2301 17.656C54.1181 17.544 54.0621 17.236 54.0621 16.732C54.0621 16.1533 54.1274 15.7333 54.2581 15.472C54.1648 15.3227 54.0808 15.1267 54.0061 14.884C53.9314 14.6413 53.8941 14.4173 53.8941 14.212C53.8941 14.0253 53.9128 13.8947 53.9501 13.82C53.8008 13.3347 53.7261 12.9427 53.7261 12.644C53.7261 12.3267 53.8008 12 53.9501 11.664C53.9128 11.384 53.9781 11.1693 54.1461 11.02C54.3141 10.8707 54.5568 10.796 54.8741 10.796C55.7328 10.796 56.1621 11.3187 56.1621 12.364C56.3301 12.476 56.4514 12.6347 56.5261 12.84C56.6194 13.0267 56.6661 13.2413 56.6661 13.484C56.6661 13.876 56.5728 14.212 56.3861 14.492C56.4608 14.604 56.5168 14.772 56.5541 14.996C56.6101 15.22 56.6381 15.444 56.6381 15.668C56.6381 15.9667 56.5914 16.172 56.4981 16.284C56.5728 16.3773 56.6101 16.5733 56.6101 16.872C56.6101 17.152 56.5728 17.4507 56.4981 17.768C56.4421 18.0853 56.3768 18.3 56.3021 18.412ZM67.4667 25.384C67.2987 25.5893 67.0747 25.748 66.7947 25.86C66.5147 25.9533 66.2253 26 65.9267 26C65.5533 26 65.292 25.9347 65.1427 25.804C65.012 25.86 64.872 25.888 64.7227 25.888C64.368 25.888 64.0693 25.7667 63.8267 25.524C63.6027 25.6173 63.4067 25.664 63.2387 25.664C62.94 25.664 62.6413 25.5893 62.3427 25.44C62.0627 25.272 61.8667 25.076 61.7547 24.852C61.4 24.8893 61.0453 24.7867 60.6907 24.544C60.3547 24.2827 60.1587 23.984 60.1027 23.648C59.5427 23.4053 59.16 22.752 58.9547 21.688C58.8427 21.5947 58.7587 21.4547 58.7027 21.268C58.6467 21.0813 58.6187 20.8947 58.6187 20.708C58.6187 20.5773 58.628 20.484 58.6467 20.428C58.3293 19.7933 58.1707 19.14 58.1707 18.468C58.1707 17.852 58.3013 17.348 58.5627 16.956C58.5253 16.7693 58.5067 16.6293 58.5067 16.536C58.5067 16.2187 58.5813 15.92 58.7307 15.64C58.88 15.3413 59.0667 15.1267 59.2907 14.996C59.2533 14.9027 59.2347 14.772 59.2347 14.604C59.2347 14.3053 59.328 14.0347 59.5147 13.792C59.72 13.5307 59.916 13.372 60.1027 13.316C60.1773 13.0547 60.3547 12.812 60.6347 12.588C60.9333 12.3453 61.2413 12.2333 61.5587 12.252C61.932 11.692 62.3053 11.44 62.6787 11.496C62.8467 11.272 63.0707 11.1133 63.3507 11.02C63.6493 10.9267 63.92 10.8893 64.1627 10.908C64.3493 10.7773 64.5547 10.712 64.7787 10.712C65.0027 10.712 65.2267 10.768 65.4507 10.88C65.6 10.768 65.8053 10.712 66.0667 10.712C66.2533 10.712 66.4307 10.74 66.5987 10.796C66.7667 10.852 66.8787 10.9173 66.9347 10.992C67.084 10.9547 67.2427 10.992 67.4107 11.104C67.5787 11.1973 67.6813 11.3187 67.7187 11.468C68.036 11.468 68.3067 11.5707 68.5307 11.776C68.7733 11.9627 68.9507 12.1867 69.0627 12.448C69.1933 12.6907 69.2493 12.8773 69.2307 13.008C69.548 13.1573 69.772 13.4 69.9027 13.736C70.0333 14.0347 70.0987 14.296 70.0987 14.52C70.0987 14.8933 69.9587 15.1827 69.6787 15.388C69.492 15.5187 69.296 15.584 69.0907 15.584C68.7547 15.584 68.428 15.444 68.1107 15.164C67.812 14.884 67.616 14.5387 67.5227 14.128C67.28 14.0907 67.0467 14.0067 66.8227 13.876C66.5987 13.7267 66.4213 13.568 66.2907 13.4C66.2347 13.4187 66.0947 13.428 65.8707 13.428C65.6653 13.428 65.5253 13.4187 65.4507 13.4C65.2827 13.568 65.096 13.652 64.8907 13.652C64.6853 13.652 64.4893 13.5867 64.3027 13.456C64.06 13.8293 63.7053 14.016 63.2387 14.016C62.996 14.352 62.7813 14.6133 62.5947 14.8C62.408 14.968 62.156 15.0333 61.8387 14.996C61.8573 15.052 61.8667 15.136 61.8667 15.248C61.8667 15.472 61.8107 15.668 61.6987 15.836C61.5867 16.004 61.456 16.1627 61.3067 16.312C61.176 16.4427 61.0733 16.5453 60.9987 16.62C61.092 16.9 61.1387 17.1613 61.1387 17.404C61.1387 17.8333 61.008 18.3467 60.7467 18.944C60.84 19.0747 60.9147 19.2613 60.9707 19.504C61.0453 19.728 61.0827 19.952 61.0827 20.176C61.0827 20.3067 61.0733 20.4 61.0547 20.456C61.1853 20.5493 61.2973 20.708 61.3907 20.932C61.5027 21.156 61.5587 21.3707 61.5587 21.576C62.0253 21.7253 62.408 21.94 62.7067 22.22C63.024 22.5 63.1827 22.7613 63.1827 23.004C63.388 22.836 63.612 22.752 63.8547 22.752C64.0787 22.752 64.2933 22.808 64.4987 22.92C64.7227 23.032 64.8907 23.1813 65.0027 23.368C65.096 23.3493 65.208 23.34 65.3387 23.34C65.6187 23.34 65.8613 23.4333 66.0667 23.62C66.1413 23.4707 66.328 23.312 66.6267 23.144C66.9253 22.976 67.168 22.9013 67.3547 22.92C67.4667 22.7333 67.616 22.5933 67.8027 22.5C68.008 22.4067 68.2227 22.36 68.4467 22.36C68.596 22.36 68.6987 22.3693 68.7547 22.388C68.9973 22.0893 69.324 21.94 69.7347 21.94C70.0893 21.94 70.3973 22.0613 70.6587 22.304C70.92 22.5467 71.0507 22.8453 71.0507 23.2C71.0507 23.6107 70.8733 23.956 70.5187 24.236C70.1827 24.4973 69.8 24.628 69.3707 24.628C69.2027 24.628 69.0813 24.6187 69.0067 24.6C69.156 24.6373 69.1373 24.7213 68.9507 24.852C68.7827 24.9827 68.54 25.1133 68.2227 25.244C67.9053 25.356 67.6533 25.4027 67.4667 25.384ZM84.6814 15.052C84.8867 15.1453 85.0734 15.3693 85.2414 15.724C85.4281 16.0787 85.5214 16.4427 85.5214 16.816C85.5214 17.4507 85.2414 17.88 84.6814 18.104C84.5321 18.3653 84.3267 18.5707 84.0654 18.72C83.8227 18.8693 83.5521 18.944 83.2534 18.944C83.0107 18.944 82.7587 18.888 82.4974 18.776C82.3481 18.8693 82.1427 18.9533 81.8814 19.028C81.6201 19.1027 81.3587 19.14 81.0974 19.14C80.6494 19.14 80.3414 19.0467 80.1734 18.86C79.9867 19.0093 79.6881 19.084 79.2774 19.084C78.9787 19.084 78.7081 19.028 78.4654 18.916C78.2041 19.0467 77.9054 19.112 77.5694 19.112C77.2521 19.112 76.9907 19.0653 76.7854 18.972C76.5987 19.14 76.2161 19.224 75.6374 19.224C75.3201 19.224 75.1054 19.196 74.9934 19.14C75.0494 19.6813 74.9747 20.0827 74.7694 20.344C75.1241 20.6987 75.2641 21.0813 75.1894 21.492C75.2081 21.5107 75.3107 21.5853 75.4974 21.716C75.6841 21.8467 75.8147 22.0613 75.8894 22.36C76.0947 22.36 76.2814 22.444 76.4494 22.612C76.6361 22.78 76.7481 22.948 76.7854 23.116C76.8601 23.0413 77.0094 23.004 77.2334 23.004C77.4014 23.004 77.5507 23.032 77.6814 23.088C77.8121 23.144 77.8867 23.2093 77.9054 23.284C78.0361 23.2093 78.1854 23.172 78.3534 23.172C78.5961 23.172 78.8201 23.256 79.0254 23.424C79.2121 23.3867 79.3521 23.368 79.4454 23.368C79.6321 23.368 79.7907 23.396 79.9214 23.452C79.9774 23.3027 80.1267 23.1627 80.3694 23.032C80.6121 22.8827 80.8641 22.8173 81.1254 22.836C81.2747 22.6493 81.4801 22.5 81.7414 22.388C82.0027 22.276 82.2641 22.22 82.5254 22.22C83.0294 22.22 83.3934 22.4253 83.6174 22.836C83.6921 22.9853 83.7294 23.1627 83.7294 23.368C83.7294 23.816 83.5241 24.1707 83.1134 24.432C83.0201 24.488 82.8614 24.5907 82.6374 24.74C82.4134 24.8707 82.2081 24.9733 82.0214 25.048C81.8347 25.1227 81.6667 25.16 81.5174 25.16C81.2374 25.496 80.8547 25.664 80.3694 25.664C80.1454 25.664 79.9774 25.6453 79.8654 25.608C79.6414 25.7947 79.3147 25.888 78.8854 25.888C78.4934 25.888 78.2227 25.8133 78.0734 25.664C77.9427 25.72 77.8121 25.748 77.6814 25.748C77.4201 25.748 77.1774 25.6547 76.9534 25.468C76.0014 25.524 75.3574 25.2253 75.0214 24.572C74.7601 24.572 74.4614 24.4133 74.1254 24.096C73.8081 23.76 73.6307 23.4707 73.5934 23.228C73.1641 23.06 72.8934 22.752 72.7814 22.304C72.7627 22.1547 72.7627 22.0147 72.7814 21.884C72.7067 21.8653 72.6414 21.7907 72.5854 21.66C72.5481 21.5107 72.5294 21.3613 72.5294 21.212C72.5294 21.1 72.5387 21.0253 72.5574 20.988C72.4081 20.54 72.3334 20.1293 72.3334 19.756C72.3334 19.3827 72.4081 19.0467 72.5574 18.748C72.4454 18.5427 72.3894 18.3187 72.3894 18.076C72.3894 17.7773 72.4547 17.4787 72.5854 17.18C72.7161 16.8813 72.8374 16.6853 72.9494 16.592C72.9121 16.4987 72.9401 16.34 73.0334 16.116C73.1267 15.8733 73.2481 15.6587 73.3974 15.472C73.5654 15.2667 73.7334 15.1453 73.9014 15.108L73.8734 14.8C73.8734 14.072 74.2654 13.6147 75.0494 13.428C75.0494 13.1107 75.2361 12.8027 75.6094 12.504C75.9827 12.2053 76.3094 12.0747 76.5894 12.112C76.6267 11.9067 76.8041 11.748 77.1214 11.636C77.4574 11.5053 77.7094 11.468 77.8774 11.524C78.0267 11.2813 78.3254 11.1133 78.7734 11.02C78.9414 10.8333 79.1841 10.74 79.5014 10.74C79.5947 10.74 79.7161 10.7587 79.8654 10.796L80.1174 10.768C80.3414 10.768 80.5281 10.8147 80.6774 10.908C80.8454 10.9827 80.9201 11.076 80.9014 11.188C81.3121 11.2253 81.6574 11.3187 81.9374 11.468C82.2174 11.6173 82.3854 11.888 82.4414 12.28C82.6841 12.224 82.9921 12.2893 83.3654 12.476C83.7387 12.644 84.0561 12.9147 84.3174 13.288C84.5974 13.6427 84.7374 14.0627 84.7374 14.548C84.7374 14.66 84.7187 14.828 84.6814 15.052ZM80.5654 16.872C80.7521 16.6107 81.2094 16.48 81.9374 16.48C82.3481 16.48 82.6654 16.5173 82.8894 16.592C82.7401 16.5173 82.6001 16.3587 82.4694 16.116C82.3574 15.8547 82.3014 15.612 82.3014 15.388C82.3014 15.2387 82.3294 15.1267 82.3854 15.052C82.1241 15.0707 81.9001 15.0053 81.7134 14.856C81.5454 14.688 81.3867 14.5013 81.2374 14.296C81.1067 14.0907 81.0041 13.9413 80.9294 13.848C80.8361 13.904 80.6401 13.8573 80.3414 13.708C80.0614 13.54 79.9121 13.372 79.8934 13.204C79.8187 13.2973 79.6601 13.3813 79.4174 13.456C79.1747 13.512 78.9881 13.5307 78.8574 13.512C78.8014 13.6053 78.6707 13.6987 78.4654 13.792C78.2601 13.8853 78.0454 13.9133 77.8214 13.876C77.6347 14.2307 77.4387 14.52 77.2334 14.744C77.0281 14.968 76.7667 15.136 76.4494 15.248C76.4121 15.5093 76.2907 15.7987 76.0854 16.116C75.8987 16.4333 75.7027 16.676 75.4974 16.844L75.6094 16.872C75.8707 16.6853 76.2254 16.592 76.6734 16.592C76.9347 16.592 77.1774 16.62 77.4014 16.676C77.6441 16.732 77.8121 16.7973 77.9054 16.872C78.3534 16.592 78.8481 16.452 79.3894 16.452C79.8374 16.452 80.2294 16.592 80.5654 16.872ZM97.174 22.696C97.23 22.8827 97.258 23.0693 97.258 23.256C97.258 23.6293 97.1087 23.8813 96.81 24.012C96.8473 24.292 96.7353 24.572 96.474 24.852C96.2127 25.132 95.97 25.272 95.746 25.272C95.6527 25.44 95.3727 25.5987 94.906 25.748C94.4393 25.8973 94.01 25.972 93.618 25.972C93.338 25.972 93.1233 25.916 92.974 25.804C92.7127 25.9347 92.3393 26 91.854 26C91.4247 26 91.0327 25.9347 90.678 25.804C90.342 25.6733 90.1367 25.4773 90.062 25.216C89.6887 25.272 89.2687 25.16 88.802 24.88C88.354 24.6 88.0647 24.3107 87.934 24.012C87.598 23.9187 87.318 23.7413 87.094 23.48C86.8887 23.2187 86.7767 22.9107 86.758 22.556C86.646 22.388 86.59 22.22 86.59 22.052C86.59 21.7907 86.674 21.5573 86.842 21.352C87.0287 21.1467 87.2433 21.044 87.486 21.044C87.7287 21.044 87.962 21.1933 88.186 21.492C88.522 21.4547 88.8207 21.5667 89.082 21.828C89.362 22.0893 89.502 22.3507 89.502 22.612C89.558 22.612 89.698 22.6307 89.922 22.668C90.1647 22.6867 90.3793 22.752 90.566 22.864C90.7527 22.976 90.8833 23.1347 90.958 23.34C91.294 23.34 91.6207 23.3867 91.938 23.48C92.274 23.5547 92.47 23.648 92.526 23.76C92.6753 23.6667 92.89 23.592 93.17 23.536C93.4687 23.4613 93.7207 23.424 93.926 23.424C93.982 23.3493 94.122 23.2747 94.346 23.2C94.57 23.1253 94.7567 23.0787 94.906 23.06C94.8127 22.9293 94.766 22.7333 94.766 22.472C94.766 22.08 94.8873 21.8 95.13 21.632C94.906 21.5573 94.7287 21.4453 94.598 21.296C94.4673 21.128 94.4113 20.9413 94.43 20.736C94.2807 20.7733 94.1687 20.792 94.094 20.792C93.7393 20.792 93.45 20.652 93.226 20.372C92.8527 20.4093 92.4793 20.3253 92.106 20.12C91.7513 19.9147 91.49 19.644 91.322 19.308C91.1913 19.364 91.0513 19.392 90.902 19.392C90.5847 19.392 90.2487 19.2987 89.894 19.112C89.558 18.9067 89.3433 18.7107 89.25 18.524C88.9887 18.5987 88.6807 18.5147 88.326 18.272C87.9713 18.0293 87.794 17.7587 87.794 17.46C87.57 17.348 87.3927 17.1613 87.262 16.9C87.1313 16.62 87.066 16.368 87.066 16.144C87.066 15.976 87.1033 15.864 87.178 15.808C87.0847 15.6213 87.038 15.4347 87.038 15.248C87.038 14.912 87.15 14.6227 87.374 14.38C87.318 14.1747 87.29 13.988 87.29 13.82C87.29 13.5027 87.3553 13.2413 87.486 13.036C87.6353 12.812 87.8127 12.7187 88.018 12.756C87.9807 12.4573 88.046 12.196 88.214 11.972C88.4007 11.748 88.6247 11.5893 88.886 11.496C89.166 11.384 89.4087 11.3467 89.614 11.384C89.726 11.216 89.8753 11.0853 90.062 10.992C90.2487 10.8987 90.4353 10.852 90.622 10.852C90.9393 10.852 91.1633 10.9453 91.294 11.132C91.3127 11.0387 91.378 10.964 91.49 10.908C91.6207 10.852 91.77 10.824 91.938 10.824C92.0873 10.824 92.2367 10.852 92.386 10.908C92.5353 10.964 92.6473 11.0293 92.722 11.104C92.834 10.992 93.03 10.936 93.31 10.936C93.534 10.936 93.758 10.9827 93.982 11.076C94.206 11.1507 94.3553 11.2627 94.43 11.412C94.542 11.356 94.6633 11.328 94.794 11.328C95.018 11.328 95.2233 11.412 95.41 11.58C95.6153 11.7293 95.7553 11.9253 95.83 12.168C96.11 12.1307 96.3993 12.224 96.698 12.448C96.9967 12.672 97.1087 12.896 97.034 13.12C97.538 13.4 97.79 13.7827 97.79 14.268C97.79 14.5667 97.6873 14.828 97.482 15.052C97.2767 15.276 97.0153 15.388 96.698 15.388C96.418 15.3693 96.1847 15.2947 95.998 15.164C95.8113 15.0333 95.6993 14.8747 95.662 14.688C95.4193 14.6507 95.186 14.5573 94.962 14.408C94.7567 14.24 94.6447 14.0253 94.626 13.764C94.2713 13.8013 94.0007 13.764 93.814 13.652C93.646 13.54 93.4967 13.3627 93.366 13.12C93.2353 13.2133 93.0673 13.26 92.862 13.26C92.6567 13.26 92.4327 13.204 92.19 13.092C92.0593 13.204 91.8913 13.2973 91.686 13.372C91.4993 13.4467 91.3127 13.484 91.126 13.484C90.9207 13.484 90.7433 13.4373 90.594 13.344C90.6313 13.568 90.5753 13.7453 90.426 13.876C90.2767 14.0067 90.0713 14.0533 89.81 14.016C89.866 14.1467 89.894 14.2867 89.894 14.436C89.894 14.772 89.7447 15.052 89.446 15.276C89.6513 15.3693 89.8007 15.528 89.894 15.752C89.9873 15.9573 90.0247 16.1627 90.006 16.368L90.23 16.34C90.79 16.34 91.1447 16.5173 91.294 16.872L91.518 16.844C91.8167 16.844 92.0967 16.9187 92.358 17.068C92.638 17.2173 92.8433 17.4693 92.974 17.824C93.2727 17.8053 93.562 17.8427 93.842 17.936C94.122 18.0107 94.318 18.16 94.43 18.384C94.5793 18.328 94.7193 18.3 94.85 18.3C95.1673 18.3 95.4473 18.3933 95.69 18.58C95.9513 18.7667 96.0913 18.9813 96.11 19.224C96.278 19.224 96.4273 19.3173 96.558 19.504C96.7073 19.6907 96.7633 19.9053 96.726 20.148C96.8567 20.1293 96.978 20.204 97.09 20.372C97.202 20.5213 97.258 20.6987 97.258 20.904C97.258 21.016 97.23 21.1187 97.174 21.212C97.4353 21.3987 97.566 21.6507 97.566 21.968C97.566 22.136 97.5287 22.2853 97.454 22.416C97.398 22.5467 97.3047 22.64 97.174 22.696ZM118.204 18.692C118.278 18.4867 118.428 18.3187 118.652 18.188C118.876 18.0387 119.109 17.964 119.352 17.964C119.426 17.964 119.538 17.9827 119.688 18.02C120.229 18.1693 120.5 18.4867 120.5 18.972C120.5 19.4013 120.313 19.84 119.94 20.288C119.977 20.4373 119.996 20.568 119.996 20.68C119.996 20.9227 119.94 21.1653 119.828 21.408C119.734 21.6507 119.594 21.8747 119.408 22.08C119.352 22.3787 119.268 22.64 119.156 22.864C119.062 23.0693 118.913 23.312 118.708 23.592C118.484 23.8907 118.26 24.1053 118.036 24.236C117.83 24.348 117.541 24.46 117.168 24.572C117.074 24.8333 116.925 25.076 116.72 25.3C116.514 25.5053 116.262 25.608 115.964 25.608C115.814 25.608 115.656 25.58 115.488 25.524C115.357 25.6733 115.17 25.7947 114.928 25.888C114.704 25.9627 114.47 26 114.228 26C113.91 26 113.658 25.9347 113.472 25.804C113.248 25.8973 112.958 25.944 112.604 25.944C112.137 25.944 111.689 25.8693 111.26 25.72C110.83 25.5707 110.494 25.3373 110.252 25.02C109.804 25.0573 109.43 24.9547 109.132 24.712C108.87 24.5627 108.702 24.3947 108.628 24.208C107.937 23.872 107.601 23.256 107.62 22.36C107.284 22.136 107.032 21.884 106.864 21.604C106.696 21.3053 106.565 20.932 106.472 20.484C106.322 20.3347 106.248 20.1387 106.248 19.896C106.248 19.784 106.257 19.6907 106.276 19.616C106.108 19.448 106.024 19.224 106.024 18.944C106.024 18.8133 106.052 18.6827 106.108 18.552C105.846 18.272 105.716 17.8707 105.716 17.348C105.716 16.8813 105.818 16.5173 106.024 16.256C105.893 16.0693 105.828 15.864 105.828 15.64C105.828 15.472 105.874 15.2947 105.968 15.108C105.874 14.996 105.828 14.772 105.828 14.436C105.828 14.0627 105.884 13.6893 105.996 13.316C106.108 12.924 106.248 12.6627 106.416 12.532C106.36 12.42 106.332 12.2613 106.332 12.056C106.332 11.7573 106.378 11.4773 106.472 11.216C106.584 10.9547 106.733 10.8147 106.92 10.796C106.92 10.404 107.078 10.096 107.396 9.872C107.377 9.61067 107.47 9.32133 107.676 9.004C107.9 8.68667 108.152 8.472 108.432 8.36C108.488 7.94933 108.656 7.604 108.936 7.324C109.216 7.044 109.524 6.88533 109.86 6.848C109.953 6.68 110.121 6.54 110.364 6.428C110.625 6.29733 110.877 6.232 111.12 6.232C111.306 6.232 111.465 6.26933 111.596 6.344C111.876 6.08267 112.193 5.952 112.548 5.952C112.846 5.952 113.042 6.02667 113.136 6.176C113.285 6.13867 113.416 6.12 113.528 6.12C113.864 6.12 114.116 6.24133 114.284 6.484C114.358 6.428 114.47 6.4 114.62 6.4C114.881 6.4 115.17 6.47467 115.488 6.624C115.824 6.75467 116.02 6.88533 116.076 7.016C116.468 7.09067 116.822 7.28667 117.14 7.604C117.457 7.90267 117.588 8.21067 117.532 8.528C117.793 8.65867 117.98 8.84533 118.092 9.088C118.204 9.312 118.241 9.52667 118.204 9.732C118.372 9.86267 118.484 10.0307 118.54 10.236C118.596 10.4227 118.633 10.5347 118.652 10.572C119.025 10.8893 119.212 11.2907 119.212 11.776C119.212 11.8693 119.193 11.9907 119.156 12.14C119.174 12.2147 119.184 12.308 119.184 12.42C119.184 12.7373 119.062 13.008 118.82 13.232C118.596 13.4373 118.334 13.54 118.036 13.54C117.737 13.54 117.476 13.428 117.252 13.204C116.729 12.644 116.44 12.084 116.384 11.524C116.16 11.4493 115.982 11.3093 115.852 11.104C115.721 10.88 115.665 10.6373 115.684 10.376C115.516 10.264 115.385 10.124 115.292 9.956C115.217 9.76933 115.189 9.58267 115.208 9.396C114.872 9.396 114.61 9.29333 114.424 9.088C114.368 9.10667 114.265 9.116 114.116 9.116C113.91 9.116 113.686 9.088 113.444 9.032C113.201 8.95733 113.014 8.87333 112.884 8.78C112.809 8.79867 112.697 8.808 112.548 8.808C112.342 8.808 112.202 8.78933 112.128 8.752C111.885 8.90133 111.652 8.976 111.428 8.976C111.353 8.976 111.222 8.95733 111.036 8.92C110.83 9.088 110.634 9.18133 110.448 9.2C110.41 9.49867 110.326 9.76933 110.196 10.012C110.084 10.2547 109.934 10.3947 109.748 10.432C109.785 10.656 109.748 10.88 109.636 11.104C109.524 11.3093 109.365 11.4773 109.16 11.608C109.141 11.7573 109.094 11.9067 109.02 12.056C108.945 12.1867 108.852 12.2893 108.74 12.364C108.758 12.4573 108.777 12.5693 108.796 12.7C108.814 12.812 108.824 12.952 108.824 13.12C108.824 13.512 108.656 13.82 108.32 14.044C108.32 14.2867 108.273 14.4827 108.18 14.632C108.273 14.8187 108.32 15.0053 108.32 15.192C108.32 15.3787 108.282 15.5467 108.208 15.696C108.32 15.8827 108.376 16.06 108.376 16.228C108.376 16.396 108.329 16.592 108.236 16.816C108.142 17.0587 108.086 17.2827 108.068 17.488C108.236 17.5813 108.366 17.712 108.46 17.88C108.553 18.048 108.6 18.2253 108.6 18.412C108.6 18.6173 108.544 18.804 108.432 18.972C108.581 19.0467 108.693 19.1773 108.768 19.364C108.842 19.5507 108.88 19.7467 108.88 19.952C108.88 20.1573 108.842 20.3253 108.768 20.456C109.178 20.68 109.458 20.9133 109.608 21.156C109.776 21.38 109.897 21.744 109.972 22.248C110.102 22.304 110.252 22.3973 110.42 22.528C110.606 22.6587 110.728 22.7707 110.784 22.864C111.101 22.8453 111.428 22.92 111.764 23.088C112.118 23.2373 112.361 23.4427 112.492 23.704C112.604 23.6107 112.781 23.536 113.024 23.48C113.285 23.4053 113.537 23.368 113.78 23.368C114.041 23.368 114.218 23.4053 114.312 23.48C114.573 23.1627 114.89 23.004 115.264 23.004C115.376 23.004 115.46 23.0133 115.516 23.032C115.814 22.7893 116.048 22.6213 116.216 22.528C116.384 22.416 116.58 22.332 116.804 22.276C116.822 21.996 116.934 21.7253 117.14 21.464C117.158 21.3147 117.214 21.1373 117.308 20.932C117.401 20.708 117.494 20.54 117.588 20.428C117.569 20.372 117.56 20.2787 117.56 20.148C117.56 19.9053 117.625 19.644 117.756 19.364C117.886 19.0653 118.036 18.8413 118.204 18.692ZM123.165 15.136C123.016 14.8933 122.941 14.66 122.941 14.436C122.941 14.1 123.053 13.82 123.277 13.596C123.333 13.316 123.464 13.0547 123.669 12.812C123.874 12.5507 124.098 12.3547 124.341 12.224C124.602 12.0747 124.808 12.0187 124.957 12.056C125.088 11.8507 125.349 11.664 125.741 11.496C126.133 11.3093 126.497 11.216 126.833 11.216C126.908 11.216 127.02 11.2347 127.169 11.272C127.374 11.048 127.645 10.936 127.981 10.936C128.242 10.936 128.429 11.0107 128.541 11.16C128.784 10.992 129.101 10.908 129.493 10.908C129.96 10.908 130.37 11.02 130.725 11.244C131.098 11.468 131.313 11.7667 131.369 12.14C131.705 12.252 131.957 12.4293 132.125 12.672C132.312 12.896 132.424 13.2133 132.461 13.624C132.704 13.8667 132.881 14.156 132.993 14.492C133.105 14.8093 133.161 15.136 133.161 15.472C133.161 15.9013 133.086 16.2467 132.937 16.508C133.068 16.6947 133.18 16.9747 133.273 17.348C133.366 17.7213 133.413 18.0853 133.413 18.44C133.413 18.5893 133.394 18.776 133.357 19C133.488 19.28 133.553 19.4667 133.553 19.56C133.553 19.616 133.525 19.7467 133.469 19.952C133.488 20.0267 133.506 20.12 133.525 20.232C133.544 20.3253 133.553 20.4467 133.553 20.596C133.553 20.876 133.45 21.128 133.245 21.352C133.32 21.5573 133.357 21.8093 133.357 22.108C133.357 22.5 133.264 22.8173 133.077 23.06C133.114 23.1347 133.133 23.256 133.133 23.424C133.133 23.816 132.974 24.1427 132.657 24.404C132.582 24.6653 132.442 24.8707 132.237 25.02C132.032 25.1507 131.808 25.216 131.565 25.216C131.322 25.216 131.126 25.1413 130.977 24.992C130.492 25.1973 130.1 25.3 129.801 25.3C129.652 25.3 129.54 25.2907 129.465 25.272C128.98 25.4213 128.569 25.496 128.233 25.496C127.99 25.496 127.654 25.4493 127.225 25.356C126.964 25.5053 126.712 25.58 126.469 25.58C126.245 25.58 126.04 25.5147 125.853 25.384C125.76 25.4027 125.62 25.412 125.433 25.412C124.705 25.412 124.145 25.0853 123.753 24.432C123.044 24.0213 122.689 23.4053 122.689 22.584C122.689 22.3787 122.698 22.22 122.717 22.108C122.549 21.996 122.465 21.7627 122.465 21.408C122.465 21.1653 122.512 20.9507 122.605 20.764C122.53 20.428 122.493 20.2133 122.493 20.12C122.493 19.5787 122.754 19.0933 123.277 18.664C123.482 18.2347 123.716 17.9453 123.977 17.796C124.257 17.6467 124.602 17.5347 125.013 17.46C125.125 17.1427 125.386 16.928 125.797 16.816C126.208 16.704 126.609 16.6667 127.001 16.704C127.113 16.6293 127.272 16.564 127.477 16.508C127.682 16.4333 127.888 16.396 128.093 16.396C128.317 16.396 128.513 16.4333 128.681 16.508C128.718 16.4707 128.812 16.452 128.961 16.452C129.073 16.452 129.185 16.4613 129.297 16.48C129.409 16.4987 129.484 16.5267 129.521 16.564C129.782 16.228 130.09 16.06 130.445 16.06C130.557 16.06 130.669 16.088 130.781 16.144V16.06C130.781 15.7427 130.846 15.5187 130.977 15.388C130.79 15.332 130.585 15.1733 130.361 14.912C130.156 14.632 130.034 14.38 129.997 14.156C129.698 14.0253 129.493 13.8107 129.381 13.512C129.157 13.68 128.896 13.764 128.597 13.764C128.392 13.764 128.196 13.708 128.009 13.596C127.692 13.6893 127.486 13.7267 127.393 13.708C127.132 13.8947 126.842 13.988 126.525 13.988C126.245 14.3613 125.918 14.5293 125.545 14.492C125.377 14.7907 125.144 15.052 124.845 15.276C124.565 15.5 124.276 15.612 123.977 15.612C123.641 15.612 123.37 15.4533 123.165 15.136ZM124.705 21.38C124.929 21.604 125.041 21.8187 125.041 22.024C125.041 22.1733 125.004 22.36 124.929 22.584C125.004 22.584 125.106 22.6307 125.237 22.724C125.386 22.7987 125.47 22.8827 125.489 22.976C125.638 22.92 125.825 22.892 126.049 22.892C126.46 22.892 126.73 22.9853 126.861 23.172C127.066 23.0973 127.281 23.06 127.505 23.06C127.86 23.06 128.14 23.1627 128.345 23.368C128.494 23.2187 128.737 23.0973 129.073 23.004C129.428 22.9107 129.745 22.864 130.025 22.864C130.193 22.528 130.492 22.332 130.921 22.276C130.958 22.1453 131.061 21.9773 131.229 21.772C131.154 21.66 131.089 21.5107 131.033 21.324C130.977 21.1373 130.949 20.9507 130.949 20.764C130.949 20.372 131.042 20.0827 131.229 19.896C131.024 19.6347 130.921 19.3267 130.921 18.972C130.921 18.7293 130.958 18.524 131.033 18.356C130.884 18.4493 130.716 18.496 130.529 18.496C130.361 18.496 130.221 18.4307 130.109 18.3C129.941 18.468 129.708 18.552 129.409 18.552C129.222 18.552 129.036 18.5053 128.849 18.412C128.644 18.6173 128.392 18.72 128.093 18.72C128 18.72 127.86 18.6827 127.673 18.608C127.393 18.888 127.141 18.972 126.917 18.86C126.805 19.1213 126.656 19.2987 126.469 19.392C126.301 19.4853 126.058 19.532 125.741 19.532C125.666 19.7373 125.536 19.9053 125.349 20.036C125.181 20.1667 125.004 20.2133 124.817 20.176C124.91 20.3067 124.957 20.456 124.957 20.624C124.957 20.904 124.873 21.156 124.705 21.38ZM143.313 23.592C143.332 23.4987 143.378 23.4333 143.453 23.396C143.546 23.3587 143.649 23.3307 143.761 23.312C143.836 23.2933 143.929 23.284 144.041 23.284C144.358 23.284 144.61 23.4053 144.797 23.648C145.002 23.872 145.105 24.1427 145.105 24.46C145.105 24.7027 145.04 24.9173 144.909 25.104C144.778 25.272 144.582 25.3933 144.321 25.468C143.929 25.804 143.462 25.944 142.921 25.888C142.772 26.0187 142.576 26.084 142.333 26.084C141.997 26.084 141.689 25.9627 141.409 25.72C141.222 25.6827 140.998 25.5893 140.737 25.44C140.476 25.272 140.345 25.1227 140.345 24.992C140.084 24.9547 139.813 24.8053 139.533 24.544C139.272 24.2827 139.178 23.9653 139.253 23.592C139.048 23.368 138.926 23.1347 138.889 22.892C138.665 22.78 138.497 22.612 138.385 22.388C138.292 22.164 138.264 21.9307 138.301 21.688C138.058 21.464 137.937 21.128 137.937 20.68C137.937 20.512 137.956 20.2973 137.993 20.036C137.732 19.8307 137.601 19.5507 137.601 19.196C137.601 18.8787 137.704 18.6173 137.909 18.412C137.685 18.188 137.573 17.8987 137.573 17.544C137.573 17.4133 137.61 17.2547 137.685 17.068C137.573 16.844 137.517 16.62 137.517 16.396C137.517 16.0973 137.601 15.864 137.769 15.696C137.657 15.472 137.601 15.2293 137.601 14.968C137.601 14.744 137.629 14.548 137.685 14.38C137.76 14.1933 137.844 14.0533 137.937 13.96C137.732 13.7173 137.629 13.456 137.629 13.176C137.629 13.0267 137.657 12.868 137.713 12.7C137.545 12.756 137.358 12.784 137.153 12.784C136.836 12.784 136.602 12.7187 136.453 12.588C136.229 12.644 136.033 12.672 135.865 12.672C135.529 12.672 135.184 12.5693 134.829 12.364C134.642 12.476 134.446 12.532 134.241 12.532C133.942 12.532 133.7 12.4107 133.513 12.168C133.308 11.9067 133.205 11.6173 133.205 11.3C133.205 11.02 133.298 10.7867 133.485 10.6C133.653 10.3947 133.905 10.2827 134.241 10.264C134.465 10.1707 134.67 10.124 134.857 10.124C135.23 10.124 135.557 10.2173 135.837 10.404C136.08 10.3107 136.35 10.264 136.649 10.264C136.91 10.264 137.116 10.3107 137.265 10.404C137.284 10.3293 137.358 10.264 137.489 10.208C137.638 10.1333 137.76 10.1053 137.853 10.124C137.778 9.956 137.741 9.732 137.741 9.452C137.741 9.116 137.816 8.93867 137.965 8.92C137.834 8.73333 137.769 8.46267 137.769 8.108C137.769 7.62267 137.89 7.28667 138.133 7.1C138.114 6.72667 138.189 6.44667 138.357 6.26C138.525 6.07333 138.74 5.98 139.001 5.98C139.262 5.98 139.505 6.07333 139.729 6.26C139.953 6.428 140.065 6.652 140.065 6.932C140.065 7.11867 139.99 7.33333 139.841 7.576C140.028 7.744 140.121 8.024 140.121 8.416C140.121 8.584 140.093 8.76133 140.037 8.948C140 9.116 139.944 9.24667 139.869 9.34C139.981 9.41467 140.037 9.564 140.037 9.788C140.037 9.97467 139.99 10.2267 139.897 10.544C140.065 10.488 140.242 10.46 140.429 10.46C140.709 10.46 140.924 10.5253 141.073 10.656C141.26 10.5627 141.409 10.516 141.521 10.516C141.708 10.516 141.857 10.5907 141.969 10.74C142.1 10.6467 142.258 10.6 142.445 10.6C142.706 10.6 142.912 10.7027 143.061 10.908C143.416 10.908 143.677 10.992 143.845 11.16C144.032 11.3093 144.125 11.5053 144.125 11.748C144.125 12.0467 144.004 12.336 143.761 12.616C143.537 12.8773 143.276 13.008 142.977 13.008C142.809 13.008 142.641 12.952 142.473 12.84C142.286 12.9893 142.044 13.064 141.745 13.064C141.465 13.064 141.232 12.9987 141.045 12.868C140.802 12.9613 140.625 13.008 140.513 13.008C140.364 13.008 140.186 12.9427 139.981 12.812C140.149 13.036 140.233 13.2787 140.233 13.54C140.233 13.82 140.121 14.072 139.897 14.296C140.065 14.52 140.149 14.8 140.149 15.136C140.149 15.4347 140.065 15.7147 139.897 15.976C140.121 16.1253 140.233 16.368 140.233 16.704C140.233 16.984 140.149 17.2267 139.981 17.432C140.168 17.6373 140.261 18.0013 140.261 18.524C140.261 18.748 140.233 18.9347 140.177 19.084C140.308 19.2707 140.373 19.4667 140.373 19.672C140.373 19.784 140.345 19.9333 140.289 20.12C140.252 20.288 140.224 20.428 140.205 20.54C140.429 20.8013 140.541 21.0533 140.541 21.296C140.858 21.5387 141.017 21.828 141.017 22.164C141.39 22.3693 141.577 22.7147 141.577 23.2C141.614 23.256 141.652 23.2933 141.689 23.312C141.726 23.3307 141.754 23.3493 141.773 23.368L141.969 23.34C142.249 23.34 142.473 23.424 142.641 23.592C142.79 23.5547 142.912 23.536 143.005 23.536C143.061 23.536 143.164 23.5547 143.313 23.592ZM157.826 15.052C158.031 15.1453 158.218 15.3693 158.386 15.724C158.573 16.0787 158.666 16.4427 158.666 16.816C158.666 17.4507 158.386 17.88 157.826 18.104C157.677 18.3653 157.471 18.5707 157.21 18.72C156.967 18.8693 156.697 18.944 156.398 18.944C156.155 18.944 155.903 18.888 155.642 18.776C155.493 18.8693 155.287 18.9533 155.026 19.028C154.765 19.1027 154.503 19.14 154.242 19.14C153.794 19.14 153.486 19.0467 153.318 18.86C153.131 19.0093 152.833 19.084 152.422 19.084C152.123 19.084 151.853 19.028 151.61 18.916C151.349 19.0467 151.05 19.112 150.714 19.112C150.397 19.112 150.135 19.0653 149.93 18.972C149.743 19.14 149.361 19.224 148.782 19.224C148.465 19.224 148.25 19.196 148.138 19.14C148.194 19.6813 148.119 20.0827 147.914 20.344C148.269 20.6987 148.409 21.0813 148.334 21.492C148.353 21.5107 148.455 21.5853 148.642 21.716C148.829 21.8467 148.959 22.0613 149.034 22.36C149.239 22.36 149.426 22.444 149.594 22.612C149.781 22.78 149.893 22.948 149.93 23.116C150.005 23.0413 150.154 23.004 150.378 23.004C150.546 23.004 150.695 23.032 150.826 23.088C150.957 23.144 151.031 23.2093 151.05 23.284C151.181 23.2093 151.33 23.172 151.498 23.172C151.741 23.172 151.965 23.256 152.17 23.424C152.357 23.3867 152.497 23.368 152.59 23.368C152.777 23.368 152.935 23.396 153.066 23.452C153.122 23.3027 153.271 23.1627 153.514 23.032C153.757 22.8827 154.009 22.8173 154.27 22.836C154.419 22.6493 154.625 22.5 154.886 22.388C155.147 22.276 155.409 22.22 155.67 22.22C156.174 22.22 156.538 22.4253 156.762 22.836C156.837 22.9853 156.874 23.1627 156.874 23.368C156.874 23.816 156.669 24.1707 156.258 24.432C156.165 24.488 156.006 24.5907 155.782 24.74C155.558 24.8707 155.353 24.9733 155.166 25.048C154.979 25.1227 154.811 25.16 154.662 25.16C154.382 25.496 153.999 25.664 153.514 25.664C153.29 25.664 153.122 25.6453 153.01 25.608C152.786 25.7947 152.459 25.888 152.03 25.888C151.638 25.888 151.367 25.8133 151.218 25.664C151.087 25.72 150.957 25.748 150.826 25.748C150.565 25.748 150.322 25.6547 150.098 25.468C149.146 25.524 148.502 25.2253 148.166 24.572C147.905 24.572 147.606 24.4133 147.27 24.096C146.953 23.76 146.775 23.4707 146.738 23.228C146.309 23.06 146.038 22.752 145.926 22.304C145.907 22.1547 145.907 22.0147 145.926 21.884C145.851 21.8653 145.786 21.7907 145.73 21.66C145.693 21.5107 145.674 21.3613 145.674 21.212C145.674 21.1 145.683 21.0253 145.702 20.988C145.553 20.54 145.478 20.1293 145.478 19.756C145.478 19.3827 145.553 19.0467 145.702 18.748C145.59 18.5427 145.534 18.3187 145.534 18.076C145.534 17.7773 145.599 17.4787 145.73 17.18C145.861 16.8813 145.982 16.6853 146.094 16.592C146.057 16.4987 146.085 16.34 146.178 16.116C146.271 15.8733 146.393 15.6587 146.542 15.472C146.71 15.2667 146.878 15.1453 147.046 15.108L147.018 14.8C147.018 14.072 147.41 13.6147 148.194 13.428C148.194 13.1107 148.381 12.8027 148.754 12.504C149.127 12.2053 149.454 12.0747 149.734 12.112C149.771 11.9067 149.949 11.748 150.266 11.636C150.602 11.5053 150.854 11.468 151.022 11.524C151.171 11.2813 151.47 11.1133 151.918 11.02C152.086 10.8333 152.329 10.74 152.646 10.74C152.739 10.74 152.861 10.7587 153.01 10.796L153.262 10.768C153.486 10.768 153.673 10.8147 153.822 10.908C153.99 10.9827 154.065 11.076 154.046 11.188C154.457 11.2253 154.802 11.3187 155.082 11.468C155.362 11.6173 155.53 11.888 155.586 12.28C155.829 12.224 156.137 12.2893 156.51 12.476C156.883 12.644 157.201 12.9147 157.462 13.288C157.742 13.6427 157.882 14.0627 157.882 14.548C157.882 14.66 157.863 14.828 157.826 15.052ZM153.71 16.872C153.897 16.6107 154.354 16.48 155.082 16.48C155.493 16.48 155.81 16.5173 156.034 16.592C155.885 16.5173 155.745 16.3587 155.614 16.116C155.502 15.8547 155.446 15.612 155.446 15.388C155.446 15.2387 155.474 15.1267 155.53 15.052C155.269 15.0707 155.045 15.0053 154.858 14.856C154.69 14.688 154.531 14.5013 154.382 14.296C154.251 14.0907 154.149 13.9413 154.074 13.848C153.981 13.904 153.785 13.8573 153.486 13.708C153.206 13.54 153.057 13.372 153.038 13.204C152.963 13.2973 152.805 13.3813 152.562 13.456C152.319 13.512 152.133 13.5307 152.002 13.512C151.946 13.6053 151.815 13.6987 151.61 13.792C151.405 13.8853 151.19 13.9133 150.966 13.876C150.779 14.2307 150.583 14.52 150.378 14.744C150.173 14.968 149.911 15.136 149.594 15.248C149.557 15.5093 149.435 15.7987 149.23 16.116C149.043 16.4333 148.847 16.676 148.642 16.844L148.754 16.872C149.015 16.6853 149.37 16.592 149.818 16.592C150.079 16.592 150.322 16.62 150.546 16.676C150.789 16.732 150.957 16.7973 151.05 16.872C151.498 16.592 151.993 16.452 152.534 16.452C152.982 16.452 153.374 16.592 153.71 16.872ZM168.107 28.688C168.069 28.5387 168.116 28.3613 168.247 28.156C168.377 27.9507 168.508 27.8387 168.639 27.82C168.601 27.6707 168.583 27.5307 168.583 27.4C168.583 27.1573 168.62 26.924 168.695 26.7C168.788 26.4947 168.909 26.336 169.059 26.224C169.04 26.1493 169.031 26.0467 169.031 25.916C169.031 25.6733 169.077 25.4493 169.171 25.244C169.264 25.02 169.367 24.8707 169.479 24.796C168.359 25.356 167.659 25.5707 167.379 25.44C166.893 25.552 166.501 25.608 166.203 25.608C165.811 25.608 165.54 25.5427 165.391 25.412C165.223 25.5053 164.999 25.552 164.719 25.552C164.345 25.552 163.981 25.468 163.627 25.3C163.291 25.1133 163.057 24.88 162.927 24.6C162.423 24.5627 161.956 24.3013 161.527 23.816C161.097 23.312 160.864 22.7333 160.827 22.08C160.491 21.968 160.229 21.716 160.043 21.324C159.875 20.9133 159.791 20.4653 159.791 19.98C159.791 19.4387 159.893 19.0373 160.099 18.776C159.968 18.6827 159.856 18.468 159.763 18.132C159.688 17.7773 159.651 17.404 159.651 17.012C159.651 16.1533 159.865 15.5747 160.295 15.276C160.239 15.1827 160.248 14.996 160.323 14.716C160.397 14.4173 160.519 14.128 160.687 13.848C160.855 13.568 161.023 13.3907 161.191 13.316C161.172 13.148 161.237 12.9613 161.387 12.756C161.536 12.5507 161.713 12.392 161.919 12.28C162.124 12.168 162.283 12.1307 162.395 12.168C162.469 11.8507 162.628 11.6267 162.871 11.496C163.132 11.3653 163.44 11.2627 163.795 11.188C163.888 10.908 164.093 10.7027 164.411 10.572C164.747 10.4227 165.129 10.348 165.559 10.348C165.988 10.348 166.389 10.4133 166.763 10.544C167.155 10.656 167.444 10.8053 167.631 10.992C167.817 10.8427 168.097 10.768 168.471 10.768C169.049 10.768 169.404 11.0013 169.535 11.468C169.684 11.412 169.833 11.384 169.983 11.384C170.3 11.384 170.58 11.5053 170.823 11.748C171.065 11.972 171.187 12.2427 171.187 12.56C171.187 12.728 171.168 12.8493 171.131 12.924C171.317 13.1853 171.457 13.428 171.551 13.652C171.663 13.876 171.7 14.1 171.663 14.324C171.719 14.492 171.747 14.6413 171.747 14.772C171.747 15.0707 171.672 15.2947 171.523 15.444C171.541 15.5 171.551 15.5747 171.551 15.668C171.551 15.8733 171.476 16.0973 171.327 16.34C171.457 16.5267 171.523 16.732 171.523 16.956C171.523 17.18 171.457 17.3853 171.327 17.572C171.364 17.908 171.383 18.132 171.383 18.244C171.439 18.7107 171.467 19.028 171.467 19.196C171.467 19.2893 171.448 19.4107 171.411 19.56C171.56 19.7653 171.635 20.064 171.635 20.456C171.635 20.848 171.569 21.1467 171.439 21.352C171.719 21.8747 171.859 22.276 171.859 22.556C171.859 22.78 171.793 22.9853 171.663 23.172C171.737 23.3027 171.775 23.452 171.775 23.62C171.775 23.8067 171.719 24.012 171.607 24.236C171.719 24.404 171.775 24.6653 171.775 25.02C171.775 25.412 171.681 25.7573 171.495 26.056C171.588 26.0747 171.607 26.1867 171.551 26.392C171.495 26.616 171.401 26.8307 171.271 27.036C171.364 27.2227 171.411 27.3907 171.411 27.54C171.411 27.764 171.345 27.9787 171.215 28.184C171.084 28.408 170.916 28.5667 170.711 28.66C170.468 29.3507 170.123 29.752 169.675 29.864C169.693 30.088 169.609 30.3027 169.423 30.508C169.236 30.732 169.04 30.8627 168.835 30.9C168.741 31.3107 168.387 31.516 167.771 31.516C167.64 31.684 167.425 31.8147 167.127 31.908C166.847 32.0013 166.529 32.048 166.175 32.048C165.484 32.048 164.961 31.8707 164.607 31.516C164.364 31.4973 164.131 31.404 163.907 31.236C163.683 31.0867 163.515 30.9 163.403 30.676C163.123 30.6573 162.88 30.5453 162.675 30.34C162.488 30.1347 162.385 29.892 162.367 29.612C162.217 29.3693 162.143 29.1547 162.143 28.968C162.143 28.6507 162.273 28.38 162.535 28.156C162.796 27.9507 163.095 27.848 163.431 27.848C163.655 27.848 163.851 27.904 164.019 28.016C164.205 28.1467 164.345 28.3333 164.439 28.576C164.831 28.6693 165.092 28.884 165.223 29.22C165.54 29.2573 165.792 29.3693 165.979 29.556C166.035 29.4627 166.156 29.388 166.343 29.332C166.529 29.2947 166.725 29.276 166.931 29.276C167.136 29.276 167.295 29.304 167.407 29.36C167.407 29.2107 167.481 29.0613 167.631 28.912C167.78 28.7813 167.939 28.7067 168.107 28.688ZM166.819 23.284C166.987 23.0787 167.239 22.976 167.575 22.976C167.855 22.976 168.051 23.0133 168.163 23.088C168.219 23.0133 168.359 22.9013 168.583 22.752C168.825 22.584 169.068 22.4627 169.311 22.388C169.087 22.164 168.975 21.744 168.975 21.128C168.975 20.7173 169.031 20.344 169.143 20.008C168.993 19.7093 168.919 19.4293 168.919 19.168C168.919 18.9253 168.965 18.7293 169.059 18.58C168.984 18.4493 168.947 18.272 168.947 18.048C168.947 17.7307 169.012 17.4507 169.143 17.208C169.031 17.0027 168.975 16.7507 168.975 16.452C168.975 16.3213 168.993 16.1813 169.031 16.032C168.863 15.808 168.779 15.4907 168.779 15.08C168.779 14.8 168.825 14.548 168.919 14.324C168.807 14.2493 168.713 14.1187 168.639 13.932C168.564 13.7267 168.517 13.54 168.499 13.372C168.275 13.3907 168.051 13.3627 167.827 13.288C167.603 13.1947 167.453 13.0733 167.379 12.924C167.136 13.0547 166.893 13.12 166.651 13.12C166.296 13.12 165.932 12.9893 165.559 12.728C165.484 12.8773 165.288 13.0453 164.971 13.232C164.653 13.4187 164.383 13.5307 164.159 13.568C164.14 13.7547 164.047 13.9227 163.879 14.072C163.729 14.2213 163.533 14.3333 163.291 14.408C163.291 14.576 163.216 14.8 163.067 15.08C162.936 15.36 162.796 15.556 162.647 15.668L162.675 16.088C162.675 16.4427 162.628 16.7693 162.535 17.068C162.46 17.3667 162.329 17.544 162.143 17.6C162.273 17.712 162.376 17.8893 162.451 18.132C162.525 18.356 162.563 18.5987 162.563 18.86C162.563 19.2707 162.497 19.5973 162.367 19.84C162.516 19.9147 162.665 20.064 162.815 20.288C162.964 20.4933 163.039 20.7267 163.039 20.988C163.039 21.1187 163.011 21.268 162.955 21.436C163.048 21.492 163.169 21.6693 163.319 21.968C163.468 22.2667 163.552 22.4627 163.571 22.556C163.851 22.5747 164.121 22.6307 164.383 22.724C164.663 22.8173 164.859 22.9573 164.971 23.144C165.251 22.976 165.521 22.892 165.783 22.892C166.137 22.892 166.483 23.0227 166.819 23.284ZM181.937 25.664C181.713 25.888 181.367 26 180.901 26C180.546 26 180.257 25.944 180.033 25.832C179.697 25.9067 179.398 25.944 179.137 25.944C178.409 25.944 177.886 25.7573 177.569 25.384C177.494 25.4027 177.391 25.412 177.261 25.412C176.831 25.412 176.505 25.216 176.281 24.824C176.094 24.8427 175.851 24.7493 175.553 24.544C175.273 24.32 175.151 24.1053 175.189 23.9C174.89 23.8253 174.638 23.648 174.433 23.368C174.246 23.0693 174.162 22.7333 174.181 22.36C173.975 22.2853 173.817 22.136 173.705 21.912C173.593 21.688 173.537 21.436 173.537 21.156C173.537 20.8573 173.583 20.6427 173.677 20.512C173.471 20.1947 173.369 19.8307 173.369 19.42C173.369 18.9907 173.499 18.6453 173.761 18.384C173.555 18.2347 173.453 18.0107 173.453 17.712C173.453 17.5253 173.499 17.3387 173.593 17.152C173.686 16.9653 173.807 16.8347 173.957 16.76C173.919 16.4987 173.947 16.256 174.041 16.032C174.153 15.7893 174.302 15.612 174.489 15.5C174.451 15.444 174.433 15.36 174.433 15.248C174.433 15.08 174.489 14.912 174.601 14.744C174.731 14.576 174.871 14.4733 175.021 14.436C175.002 14.38 174.993 14.3053 174.993 14.212C174.993 13.82 175.142 13.484 175.441 13.204C175.739 12.9053 176.029 12.7747 176.309 12.812C176.309 12.5507 176.421 12.336 176.645 12.168C176.887 11.9813 177.195 11.888 177.569 11.888C177.737 11.888 177.867 11.8973 177.961 11.916C178.091 11.636 178.315 11.412 178.633 11.244C178.95 11.0573 179.277 10.964 179.613 10.964C179.837 10.964 180.023 11.0107 180.173 11.104C180.434 10.88 180.761 10.768 181.153 10.768C181.47 10.768 181.75 10.8427 181.993 10.992C182.254 11.1413 182.413 11.3467 182.469 11.608C182.767 11.608 183.085 11.72 183.421 11.944C183.757 12.1493 183.953 12.364 184.009 12.588C184.457 12.7187 184.886 13.008 185.297 13.456C185.726 13.8853 185.941 14.324 185.941 14.772C185.941 14.8467 185.922 14.9587 185.885 15.108C186.687 15.276 187.051 16.088 186.977 17.544C187.145 17.824 187.229 18.1227 187.229 18.44C187.229 18.8133 187.107 19.1867 186.865 19.56C186.921 19.728 186.949 19.8867 186.949 20.036C186.949 20.26 186.902 20.4747 186.809 20.68C186.715 20.8853 186.594 21.044 186.445 21.156C186.463 21.4547 186.407 21.6973 186.277 21.884C186.165 22.0707 185.95 22.3227 185.633 22.64C185.651 22.7147 185.661 22.8267 185.661 22.976C185.661 23.536 185.343 23.9 184.709 24.068C184.653 24.3667 184.494 24.6093 184.233 24.796C183.99 24.9827 183.691 25.076 183.337 25.076C183.038 25.4867 182.674 25.692 182.245 25.692C182.114 25.692 182.011 25.6827 181.937 25.664ZM179.305 23.704C179.454 23.5733 179.706 23.508 180.061 23.508C180.322 23.508 180.462 23.5453 180.481 23.62C180.63 23.452 180.817 23.3213 181.041 23.228C181.265 23.1347 181.47 23.0973 181.657 23.116C181.974 22.7987 182.319 22.64 182.693 22.64C182.823 22.64 182.917 22.6493 182.973 22.668C182.954 22.5 183.001 22.3413 183.113 22.192C183.225 22.024 183.355 21.912 183.505 21.856C183.505 21.6133 183.561 21.408 183.673 21.24C183.803 21.0533 183.962 20.9133 184.149 20.82C184.149 20.4467 184.223 20.148 184.373 19.924C184.317 19.7747 184.289 19.6253 184.289 19.476C184.289 19.2707 184.335 19.0747 184.429 18.888C184.522 18.6827 184.653 18.5147 184.821 18.384C184.634 18.216 184.541 18.0107 184.541 17.768C184.541 17.544 184.606 17.32 184.737 17.096C184.363 16.872 184.111 16.6573 183.981 16.452C183.869 16.228 183.813 15.8267 183.813 15.248C183.645 15.2667 183.467 15.1733 183.281 14.968C183.113 14.7627 183.01 14.5293 182.973 14.268C182.767 14.324 182.515 14.268 182.217 14.1C181.937 13.9133 181.797 13.68 181.797 13.4C181.647 13.4747 181.47 13.512 181.265 13.512C180.873 13.512 180.555 13.372 180.313 13.092C180.107 13.2973 179.837 13.4653 179.501 13.596C179.183 13.708 178.903 13.7453 178.661 13.708C178.642 13.8947 178.474 14.1187 178.157 14.38C177.858 14.6227 177.587 14.7813 177.345 14.856C177.401 14.968 177.429 15.0987 177.429 15.248C177.429 15.4347 177.382 15.6213 177.289 15.808C177.195 15.9947 177.065 16.1533 176.897 16.284C176.915 16.5453 176.85 16.7973 176.701 17.04C176.57 17.2827 176.383 17.4507 176.141 17.544C176.178 17.6933 176.197 17.8147 176.197 17.908C176.197 18.1693 176.131 18.3747 176.001 18.524C176.057 18.6547 176.085 18.7853 176.085 18.916C176.085 19.1213 175.982 19.3453 175.777 19.588C176.243 19.9053 176.477 20.3627 176.477 20.96C176.477 21.2773 176.421 21.548 176.309 21.772C176.495 21.7907 176.626 21.8467 176.701 21.94C176.775 22.0333 176.841 22.1827 176.897 22.388C177.363 22.444 177.709 22.668 177.933 23.06C178.138 23.06 178.39 23.1253 178.689 23.256C179.006 23.3867 179.211 23.536 179.305 23.704ZM191.796 24.684C191.87 25.0947 191.786 25.4213 191.544 25.664C191.32 25.888 191.04 26 190.704 26C190.405 26 190.144 25.9067 189.92 25.72C189.696 25.5147 189.584 25.2347 189.584 24.88C189.584 24.656 189.64 24.404 189.752 24.124C189.64 23.8627 189.584 23.592 189.584 23.312C189.584 23.088 189.63 22.9013 189.724 22.752C189.612 22.6773 189.528 22.5653 189.472 22.416C189.416 22.2667 189.388 22.0987 189.388 21.912C189.388 21.7253 189.425 21.52 189.5 21.296C189.332 21.0907 189.248 20.848 189.248 20.568C189.248 20.2133 189.378 19.924 189.64 19.7C189.621 19.644 189.612 19.5507 189.612 19.42C189.612 19.2333 189.63 19.1027 189.668 19.028C189.462 18.7667 189.36 18.3933 189.36 17.908C189.36 17.572 189.425 17.3107 189.556 17.124C189.425 17.012 189.313 16.8627 189.22 16.676C189.126 16.4707 189.08 16.2653 189.08 16.06C189.08 15.836 189.145 15.6213 189.276 15.416C189.182 15.192 189.136 14.996 189.136 14.828C189.136 14.548 189.22 14.2867 189.388 14.044C189.164 13.82 189.052 13.5867 189.052 13.344C189.052 13.1573 189.117 12.9053 189.248 12.588C189.117 12.3267 189.052 12.0467 189.052 11.748C189.052 11.356 189.192 11.1133 189.472 11.02C189.49 10.7587 189.584 10.544 189.752 10.376C189.92 10.208 190.125 10.124 190.368 10.124C190.648 10.124 190.89 10.264 191.096 10.544C191.32 10.8053 191.432 11.188 191.432 11.692C191.432 11.8973 191.422 12.0653 191.404 12.196C191.478 12.1587 191.553 12.1027 191.628 12.028C191.702 11.9347 191.796 11.8693 191.908 11.832C192.02 11.7947 192.188 11.776 192.412 11.776C192.449 11.6827 192.57 11.5893 192.776 11.496C193 11.4027 193.214 11.356 193.42 11.356C193.569 11.356 193.672 11.3747 193.728 11.412C193.877 11.3373 194.026 11.3 194.176 11.3C194.4 11.3 194.642 11.4587 194.904 11.776C195.352 11.7387 195.678 11.8413 195.884 12.084C196.182 12.0653 196.444 12.1027 196.668 12.196C196.892 12.2893 197.069 12.4853 197.2 12.784C197.554 13.008 197.732 13.3067 197.732 13.68C197.732 13.9973 197.592 14.296 197.312 14.576C197.05 14.8373 196.761 14.968 196.444 14.968C196.089 14.968 195.79 14.7813 195.548 14.408C195.342 14.408 195.184 14.3893 195.072 14.352C194.96 14.3147 194.848 14.2307 194.736 14.1C194.624 14.1373 194.53 14.156 194.456 14.156C194.288 14.156 194.11 14.1093 193.924 14.016C193.662 14.184 193.382 14.2587 193.084 14.24C192.972 14.5013 192.682 14.632 192.216 14.632C192.234 14.688 192.244 14.7813 192.244 14.912C192.244 15.1547 192.188 15.3973 192.076 15.64C191.982 15.864 191.861 16.032 191.712 16.144C191.861 16.4987 191.936 16.8533 191.936 17.208C191.936 17.5253 191.861 17.768 191.712 17.936C191.768 18.0107 191.824 18.104 191.88 18.216C191.954 18.328 192.01 18.4307 192.048 18.524C192.085 18.6733 192.104 18.7853 192.104 18.86C192.104 18.9907 192.057 19.168 191.964 19.392C192.057 19.616 192.104 19.784 192.104 19.896C192.104 20.0453 192.038 20.2507 191.908 20.512C192.02 20.6987 192.076 20.904 192.076 21.128C192.076 21.3893 192.01 21.6133 191.88 21.8C192.01 22.0987 192.076 22.4067 192.076 22.724C192.076 22.9667 192.02 23.1907 191.908 23.396C192.001 23.5827 192.048 23.7693 192.048 23.956C192.048 24.2173 191.964 24.46 191.796 24.684ZM207.963 20.848C207.889 21.0907 207.73 21.3053 207.487 21.492C207.525 22.2387 207.329 22.7053 206.899 22.892C206.862 23.1907 206.731 23.508 206.507 23.844C206.283 24.18 206.041 24.404 205.779 24.516C205.779 24.5907 205.761 24.7493 205.723 24.992C205.705 25.216 205.649 25.4027 205.555 25.552C205.481 25.7013 205.359 25.8507 205.191 26C205.285 26.6533 204.977 27.3067 204.267 27.96C204.249 28.408 204.099 28.7627 203.819 29.024C203.558 29.304 203.241 29.472 202.867 29.528C202.83 29.7893 202.634 30.0413 202.279 30.284C201.943 30.5453 201.617 30.676 201.299 30.676C201.225 30.8813 200.917 31.0867 200.375 31.292C199.853 31.516 199.507 31.572 199.339 31.46C198.891 31.4973 198.537 31.3853 198.275 31.124C198.014 30.8627 197.883 30.5547 197.883 30.2C197.883 29.9387 197.958 29.7147 198.107 29.528C198.257 29.3413 198.471 29.248 198.751 29.248C198.845 29.248 198.919 29.2573 198.975 29.276C199.498 28.884 199.918 28.688 200.235 28.688C200.347 28.688 200.431 28.6973 200.487 28.716C200.525 28.492 200.655 28.2773 200.879 28.072C201.103 27.8853 201.365 27.736 201.663 27.624C201.663 27.4373 201.738 27.2413 201.887 27.036C202.037 26.8307 202.214 26.6627 202.419 26.532C202.382 26.42 202.363 26.336 202.363 26.28C202.363 26 202.485 25.692 202.727 25.356C202.97 25.0013 203.213 24.7773 203.455 24.684C203.026 24.46 202.811 24.1147 202.811 23.648C202.625 23.6293 202.447 23.4987 202.279 23.256C202.13 23.0133 202.055 22.752 202.055 22.472C202.055 22.304 202.102 22.1453 202.195 21.996C201.915 21.9027 201.701 21.7533 201.551 21.548C201.421 21.3427 201.355 21.1 201.355 20.82C201.355 20.6147 201.393 20.4093 201.467 20.204C201.206 20.0547 201.001 19.896 200.851 19.728C200.721 19.56 200.665 19.364 200.683 19.14C200.403 18.9533 200.263 18.664 200.263 18.272C200.263 18.0853 200.291 17.908 200.347 17.74C199.881 17.236 199.647 16.6947 199.647 16.116C199.647 15.948 199.657 15.8173 199.675 15.724C199.414 15.5933 199.218 15.416 199.087 15.192C198.957 14.9493 198.891 14.6787 198.891 14.38C198.891 14.1 198.947 13.8387 199.059 13.596C198.574 13.26 198.331 12.8867 198.331 12.476C198.331 12.0093 198.537 11.636 198.947 11.356C199.115 11.244 199.302 11.188 199.507 11.188C199.787 11.188 200.039 11.2907 200.263 11.496C200.506 11.7013 200.683 11.9533 200.795 12.252C200.963 12.4013 201.103 12.6347 201.215 12.952C201.327 13.2693 201.383 13.568 201.383 13.848C201.383 14.016 201.374 14.128 201.355 14.184C201.915 14.7813 202.195 15.36 202.195 15.92C202.195 15.9947 202.177 16.1253 202.139 16.312C202.382 16.4427 202.559 16.6387 202.671 16.9C202.783 17.1427 202.821 17.3947 202.783 17.656C202.97 17.8053 203.101 17.992 203.175 18.216C203.269 18.44 203.297 18.664 203.259 18.888C203.427 18.888 203.577 19.0187 203.707 19.28C203.857 19.5227 203.913 19.7747 203.875 20.036C204.118 20.1667 204.277 20.344 204.351 20.568C204.426 20.7733 204.445 21.0253 204.407 21.324C204.65 21.3987 204.771 21.632 204.771 22.024C204.827 21.7067 204.893 21.4733 204.967 21.324C205.042 21.1747 205.154 21.016 205.303 20.848C205.266 20.6613 205.247 20.54 205.247 20.484C205.247 20.2787 205.285 20.12 205.359 20.008C205.434 19.8773 205.537 19.8027 205.667 19.784C205.593 19.4293 205.686 19.084 205.947 18.748C205.891 18.636 205.863 18.524 205.863 18.412C205.863 18.2813 205.919 18.1413 206.031 17.992C206.162 17.824 206.246 17.712 206.283 17.656C206.171 17.32 206.115 17.04 206.115 16.816C206.115 16.6293 206.153 16.452 206.227 16.284C206.302 16.116 206.423 15.9107 206.591 15.668C206.479 15.444 206.423 15.108 206.423 14.66C206.423 14.0627 206.545 13.5213 206.787 13.036C206.713 12.7747 206.675 12.5693 206.675 12.42C206.675 12.196 206.731 12 206.843 11.832C206.843 11.384 206.983 11.0293 207.263 10.768C207.543 10.5067 207.861 10.376 208.215 10.376C208.514 10.376 208.766 10.488 208.971 10.712C209.195 10.9173 209.298 11.216 209.279 11.608C209.41 11.8693 209.475 12.1867 209.475 12.56C209.475 13.232 209.317 13.82 208.999 14.324C209.074 14.5667 209.111 14.828 209.111 15.108C209.111 15.5747 208.943 16.0227 208.607 16.452C208.626 16.6013 208.663 16.7787 208.719 16.984C208.775 17.1893 208.803 17.3573 208.803 17.488C208.803 17.768 208.71 18.0107 208.523 18.216C208.617 18.4773 208.421 19.028 207.935 19.868C208.01 20.092 208.047 20.2693 208.047 20.4C208.047 20.5493 208.019 20.6987 207.963 20.848Z" fill="black"/>
<path d="M2 42.5317H119" stroke="#3A8DA8" stroke-width="4"/>
</svg>
